<svg xmlns="http://www.w3.org/2000/svg" viewBox="0 0 468 60" width="468" height="60">
	<style>
		tspan { white-space:pre }
		.shp0 { fill: #00ff3d } 
	</style>
	<path id="CONSULTORIO " fill="#ffffff" d="M119.05 17.74L119.05 22.11Q116.96 20.16 114.58 19.2Q112.22 18.23 109.55 18.23Q104.3 18.23 101.52 21.45Q98.73 24.65 98.73 30.72Q98.73 36.77 101.52 39.99Q104.3 43.19 109.55 43.19Q112.22 43.19 114.58 42.23Q116.96 41.26 119.05 39.31L119.05 43.64Q116.88 45.12 114.44 45.86Q112.02 46.59 109.31 46.59Q102.36 46.59 98.36 42.35Q94.36 38.08 94.36 30.72Q94.36 23.34 98.36 19.09Q102.36 14.83 109.31 14.83Q112.06 14.83 114.48 15.57Q116.92 16.28 119.05 17.74ZM137.88 18.19Q133.36 18.19 130.7 21.55Q128.05 24.92 128.05 30.72Q128.05 36.5 130.7 39.87Q133.36 43.23 137.88 43.23Q142.39 43.23 145.01 39.87Q147.66 36.5 147.66 30.72Q147.66 24.92 145.01 21.55Q142.39 18.19 137.88 18.19ZM137.88 14.83Q144.32 14.83 148.17 19.16Q152.03 23.46 152.03 30.72Q152.03 37.96 148.17 42.29Q144.32 46.59 137.88 46.59Q131.42 46.59 127.54 42.29Q123.68 37.98 123.68 30.72Q123.68 23.46 127.54 19.16Q131.42 14.83 137.88 14.83ZM158.51 46L158.51 15.38L164.08 15.38L177.66 41L177.66 15.38L181.68 15.38L181.68 46L176.1 46L162.53 20.39L162.53 46L158.51 46ZM208.28 16.39L208.28 20.43Q205.92 19.3 203.83 18.75Q201.74 18.19 199.79 18.19Q196.41 18.19 194.56 19.5Q192.73 20.82 192.73 23.24Q192.73 25.27 193.94 26.31Q195.17 27.34 198.58 27.97L201.08 28.49Q205.72 29.37 207.91 31.6Q210.13 33.82 210.13 37.55Q210.13 42 207.13 44.3Q204.16 46.59 198.39 46.59Q196.22 46.59 193.76 46.1Q191.32 45.61 188.69 44.65L188.69 40.38Q191.22 41.8 193.64 42.51Q196.06 43.23 198.39 43.23Q201.94 43.23 203.87 41.84Q205.8 40.44 205.8 37.86Q205.8 35.6 204.4 34.33Q203.03 33.06 199.87 32.42L197.35 31.93Q192.71 31.01 190.64 29.04Q188.57 27.07 188.57 23.56Q188.57 19.5 191.42 17.17Q194.29 14.83 199.32 14.83Q201.47 14.83 203.71 15.22Q205.94 15.61 208.28 16.39ZM216.11 34.5L216.11 15.38L220.28 15.38L220.28 33.98Q220.28 38.9 222.06 41.08Q223.84 43.23 227.84 43.23Q231.82 43.23 233.61 41.08Q235.39 38.9 235.39 33.98L235.39 15.38L239.55 15.38L239.55 34.5Q239.55 40.48 236.58 43.54Q233.63 46.59 227.84 46.59Q222.04 46.59 219.07 43.54Q216.11 40.48 216.11 34.5ZM247.33 46L247.33 15.38L251.47 15.38L251.47 42.51L266.38 42.51L266.38 46L247.33 46ZM260.7 18.87L260.7 15.38L286.6 15.38L286.6 18.87L275.73 18.87L275.73 46L271.57 46L271.57 18.87L260.7 18.87ZM303.03 18.19Q298.51 18.19 295.85 21.55Q293.2 24.92 293.2 30.72Q293.2 36.5 295.85 39.87Q298.51 43.23 303.03 43.23Q307.54 43.23 310.16 39.87Q312.81 36.5 312.81 30.72Q312.81 24.92 310.16 21.55Q307.54 18.19 303.03 18.19ZM303.03 14.83Q309.46 14.83 313.32 19.16Q317.18 23.46 317.18 30.72Q317.18 37.96 313.32 42.29Q309.46 46.59 303.03 46.59Q296.57 46.59 292.69 42.29Q288.83 37.98 288.83 30.72Q288.83 23.46 292.69 19.16Q296.57 14.83 303.03 14.83ZM338.18 31.64Q339.51 32.1 340.76 33.57Q342.03 35.05 343.3 37.63L347.51 46L343.06 46L339.14 38.15Q337.62 35.07 336.19 34.06Q334.77 33.06 332.31 33.06L327.8 33.06L327.8 46L323.66 46L323.66 15.38L333.01 15.38Q338.26 15.38 340.84 17.58Q343.43 19.77 343.43 24.2Q343.43 27.09 342.07 29Q340.74 30.91 338.18 31.64ZM333.01 18.79L327.8 18.79L327.8 29.66L333.01 29.66Q336 29.66 337.52 28.28Q339.06 26.89 339.06 24.2Q339.06 21.51 337.52 20.16Q336 18.79 333.01 18.79ZM352.84 46L352.84 15.38L356.98 15.38L356.98 46L352.84 46ZM377.65 18.19Q373.14 18.19 370.48 21.55Q367.83 24.92 367.83 30.72Q367.83 36.5 370.48 39.87Q373.14 43.23 377.65 43.23Q382.17 43.23 384.79 39.87Q387.44 36.5 387.44 30.72Q387.44 24.92 384.79 21.55Q382.17 18.19 377.65 18.19ZM377.65 14.83Q384.09 14.83 387.95 19.16Q391.8 23.46 391.8 30.72Q391.8 37.96 387.95 42.29Q384.09 46.59 377.65 46.59Q371.19 46.59 367.32 42.29Q363.46 37.98 363.46 30.72Q363.46 23.46 367.32 19.16Q371.19 14.83 377.65 14.83Z" />
	<path id="Shape 1" class="shp0" d="M58 9L73 9L73 51L58 51L58 9Z" />
</svg>